<svg width="512" height="512" viewBox="0 0 512 512" fill="none" xmlns="http://www.w3.org/2000/svg">
<rect width="512" height="512" rx="100" fill="#1C274C"/>
<path d="M209.605 328.614C222.614 338.257 238.436 343.912 255.5 343.912C272.563 343.912 288.385 338.257 301.394 328.614" stroke="white" stroke-width="28.111" stroke-linecap="round"/>
<path d="M192.487 249.398C197.269 249.398 203.084 249.398 209.356 249.398C215.627 249.398 221.443 249.398 226.224 249.398" stroke="white" stroke-width="22.4888" stroke-linecap="round"/>
<path d="M301.396 234.557C302.268 234.557 303.993 235.087 305.85 237.872C307.671 240.604 309.046 244.818 309.046 249.855C309.046 254.893 307.671 259.107 305.85 261.839C303.993 264.624 302.268 265.154 301.396 265.154C300.524 265.154 298.799 264.624 296.943 261.839C295.122 259.107 293.747 254.893 293.747 249.855C293.747 244.818 295.122 240.604 296.943 237.872C298.799 235.087 300.524 234.557 301.396 234.557Z" fill="#1C274C" stroke="white" stroke-width="15.2966"/>
<path d="M386.064 398C408.466 375.6 408.466 339.544 408.466 267.436C408.466 195.327 408.466 159.272 386.064 136.871C363.664 114.47 327.608 114.47 255.5 114.47C183.391 114.47 147.336 114.47 124.935 136.871C102.534 159.272 102.534 195.327 102.534 267.436C102.534 339.544 102.534 375.6 124.935 398" stroke="white" stroke-width="28.111"/>
</svg>
