<svg width="482" height="118" viewBox="0 0 482 118" fill="none" xmlns="http://www.w3.org/2000/svg">
<path d="M127.88 92.4021V0H137.869V92.4021H127.88ZM169.461 92.4021L135.622 59.3122L168.212 28.7196H181.948L145.361 62.1841L145.986 56.3153L183.196 92.4021H169.461Z" fill="white"/>
<path d="M194.704 92.4021V2.49735H204.693V92.4021H194.704Z" fill="white"/>
<path d="M224.701 92.4021V28.7196H234.691V92.4021H224.701ZM223.952 14.2349V2.49735H235.44V14.2349H223.952Z" fill="white"/>
<path d="M254.699 92.4021V28.7196H264.064V43.7037H264.688V92.4021H254.699ZM300.275 92.4021V50.6963C300.275 45.8681 299.068 42.2469 296.654 39.8328C294.24 37.4187 290.661 36.2116 285.916 36.2116C281.753 36.2116 278.049 37.1273 274.802 38.9587C271.639 40.7901 269.142 43.3291 267.31 46.5757C265.562 49.8222 264.688 53.6099 264.688 57.9386L263.065 42.8296C265.229 38.0847 268.517 34.3386 272.929 31.5915C277.425 28.8444 282.503 27.4709 288.163 27.4709C294.823 27.4709 300.151 29.3855 304.146 33.2148C308.225 36.9608 310.265 41.9139 310.265 48.0741V92.4021H300.275Z" fill="white"/>
<path d="M360.915 93.5259C354.922 93.5259 349.885 92.0691 345.806 89.1555C341.727 86.242 338.939 82.1213 337.44 76.7936L339.438 76.5439V118H329.449V28.7196H338.814V43.5788L337.44 43.2042C339.022 38.2928 342.019 34.4635 346.431 31.7164C350.843 28.8861 355.962 27.4709 361.789 27.4709C367.45 27.4709 372.361 28.8444 376.524 31.5915C380.769 34.3386 384.057 38.1679 386.388 43.0794C388.719 47.9908 389.885 53.7347 389.885 60.3111C389.885 66.9707 388.677 72.7979 386.263 77.7926C383.849 82.7873 380.478 86.6582 376.149 89.4053C371.82 92.1524 366.742 93.5259 360.915 93.5259ZM359.417 84.7852C365.743 84.7852 370.697 82.6208 374.276 78.2921C377.856 73.8801 379.645 67.8864 379.645 60.3111C379.645 52.819 377.856 46.9503 374.276 42.7048C370.697 38.376 365.743 36.2116 359.417 36.2116C353.09 36.2116 348.095 38.4176 344.433 42.8296C340.77 47.1584 338.939 53.1104 338.939 60.6857C338.939 68.0945 340.77 73.9633 344.433 78.2921C348.095 82.6208 353.09 84.7852 359.417 84.7852Z" fill="white"/>
<path d="M444.501 92.4021C444.168 90.9869 443.919 89.3637 443.752 87.5323C443.669 85.7009 443.627 83.37 443.627 80.5397H443.003V50.072C443.003 45.2437 441.879 41.7058 439.632 39.4582C437.467 37.1273 433.929 35.9619 429.018 35.9619C424.19 35.9619 420.319 36.9608 417.405 38.9587C414.575 40.8734 412.993 43.6205 412.66 47.2H403.045C403.462 41.0399 406.042 36.2116 410.787 32.7153C415.532 29.219 421.734 27.4709 429.392 27.4709C437.301 27.4709 443.17 29.3439 446.999 33.0899C450.828 36.836 452.743 42.455 452.743 49.9471V80.5397C452.743 82.3711 452.868 84.2857 453.117 86.2836C453.367 88.1982 453.7 90.2377 454.116 92.4021H444.501ZM422.65 93.6508C416.073 93.6508 410.829 92.0691 406.916 88.9058C403.087 85.6593 401.172 81.2473 401.172 75.6698C401.172 70.0924 403.087 65.7637 406.916 62.6836C410.746 59.6035 416.323 57.4392 423.649 56.1905L445.875 52.4444V60.6857L425.147 63.9323C420.485 64.6815 416.947 65.9302 414.533 67.6783C412.119 69.4264 410.912 71.9654 410.912 75.2952C410.912 78.5418 411.994 80.9975 414.159 82.6624C416.406 84.3273 419.694 85.1598 424.023 85.1598C429.601 85.1598 434.137 83.9111 437.634 81.4138C441.213 78.8332 443.003 75.5033 443.003 71.4243L444.626 80.2899C443.294 84.5354 440.672 87.8236 436.76 90.1545C432.93 92.4854 428.227 93.6508 422.65 93.6508Z" fill="white"/>
<path d="M471.998 92.4021V2.49735H481.987V92.4021H471.998Z" fill="white"/>
<path d="M37.0806 71.9031C41.0629 74.8548 45.9061 76.5861 51.1296 76.5861C56.353 76.5861 61.1961 74.8548 65.1785 71.9031" stroke="white" stroke-width="8.60516" stroke-linecap="round"/>
<path d="M31.8398 47.6541C33.3035 47.6541 35.0836 47.6541 37.0035 47.6541C38.9233 47.6541 40.7034 47.6541 42.1671 47.6541" stroke="white" stroke-width="6.88413" stroke-linecap="round"/>
<path d="M65.1757 54.8183C67.762 54.8183 69.8587 51.6733 69.8587 47.7938C69.8587 43.9143 67.762 40.7693 65.1757 40.7693C62.5893 40.7693 60.4927 43.9143 60.4927 47.7938C60.4927 51.6733 62.5893 54.8183 65.1757 54.8183Z" fill="white"/>
<path d="M91.0952 93.1428C97.9527 86.2857 97.9527 75.2486 97.9527 53.1753C97.9527 31.1018 97.9527 20.0651 91.0952 13.2077C84.2381 6.35034 73.201 6.35034 51.1277 6.35034C29.0542 6.35034 18.0174 6.35034 11.1601 13.2077C4.30273 20.0651 4.30273 31.1018 4.30273 53.1753C4.30273 75.2486 4.30273 86.2857 11.1601 93.1428" stroke="white" stroke-width="8.60516"/>
</svg>
